# xmcd CD database file
#
# Track frame offsets:
#	150
#	22685
#	51975
#	75850
#	94195
#	116452
#	137330
#	157030
#	179667
#	200422
#	217880
#	239065
#	255807
#
# Disc length: 3679 seconds
#
# Revision: 3
# Processed by: cddbd v1.5.1PL2 Copyright (c) Steve Scherf et al.
# Submitted via: CDex 1.51
#
DISCID=a00e5d0d
DTITLE=Derico e os Antropófagos Anônimos - Live in Palicari
DYEAR=1998
DGENRE=Jazz
TTITLE0=Pick Up The Pieces
TTITLE1=Le Freak - Got To Be Real
TTITLE2=Boa Noite
TTITLE3=Human Nature
TTITLE4=A Night In Tunisia
TTITLE5=I'll Be Here For You
TTITLE6=Baião
TTITLE7=Fato Consumado
TTITLE8=I'm In You
TTITLE9=In The Stone
TTITLE10=Bad Love
TTITLE11=One More Night
TTITLE12=Calling You
EXTD=YEAR: 1998
EXTT0=
EXTT1=
EXTT2=
EXTT3=
EXTT4=
EXTT5=
EXTT6=
EXTT7=
EXTT8=
EXTT9=
EXTT10=
EXTT11=
EXTT12=
PLAYORDER=
